<svg xmlns="http://www.w3.org/2000/svg" version="1.1" xmlns:xlink="http://www.w3.org/1999/xlink" xmlns:svgjs="http://svgjs.dev/svgjs" width="100%" height="100%" viewBox="0 0 1000 600"><rect width="1000" height="600" x="0" y="0" fill="#000000"/><g><rect width="333.3333333333333" height="333.3333333333333" y="106.40438571881336" fill="#000000" transform="matrix(1.4848750118498222,0,0,1.4848750118498222,0,-105.47637452131345)" x="84.18214416503906"/><path d="M295.06201006702156 348.0710379112584L277.89531091012043 348.0710379112584L272.5307174235888 323.3939078732129L239.4788608871246 323.3939078732129L243.11486313910711 306.64445487637533L268.2390426343635 306.64445487637533L244.18778183641342 198.07104336840504L261.3544809933146 198.07104336840504L295.06201006702156 348.0710379112584ZM223.59370350756154 348.0710379112584L206.63562743069215 348.0710379112584L235.39580917793108 221.0493854690488L238.82318834988183 221.0493854690488L245.26070053371973 250.85268261644663L223.59370350756154 348.0710379112584Z " fill="#ffffff" transform="matrix(1.4848750118498222,0,0,1.4848750118498222,0,-105.47637452131345)"/><path d="M589.2751982384082 348.0710379112584L572.108499081507 348.0710379112584L566.7439055949754 323.3939078732129L533.6920490585112 323.3939078732129L537.3280513104937 306.64445487637533L562.4522308057501 306.64445487637533L538.4009700078001 198.07104336840504L555.5676691647012 198.07104336840504L589.2751982384082 348.0710379112584ZM517.8068916789482 348.0710379112584L500.8488156020788 348.0710379112584L529.6089973493177 221.0493854690488L533.0363765212685 221.0493854690488L539.4738887051064 250.85268261644663L517.8068916789482 348.0710379112584Z " fill="#ffffff" transform="matrix(1.4848750118498222,0,0,1.4848750118498222,0,-105.47637452131345)"/></g></svg>